<?xml version="1.0" encoding="UTF-8" standalone="no"?>
<!DOCTYPE svg PUBLIC "-//W3C//DTD SVG 1.1//EN" "http://www.w3.org/Graphics/SVG/1.1/DTD/svg11.dtd">
<svg width="100%" height="100%" viewBox="0 0 800 800" version="1.1" xmlns="http://www.w3.org/2000/svg" xmlns:xlink="http://www.w3.org/1999/xlink" xml:space="preserve" xmlns:serif="http://www.serif.com/" style="fill-rule:evenodd;clip-rule:evenodd;stroke-linejoin:round;stroke-miterlimit:2;">
    <g transform="matrix(1,0,0,1,-576,0)">
        <g id="Main" transform="matrix(1.00016,0,0,1.00016,-0.151373,33.8973)">
            <rect x="576.06" y="-33.892" width="799.873" height="799.873" style="fill:none;"/>
            <clipPath id="_clip1">
                <rect x="576.06" y="-33.892" width="799.873" height="799.873"/>
            </clipPath>
            <g clip-path="url(#_clip1)">
                <g transform="matrix(1.0904,0,0,1.0904,539.837,-70.1147)">
                    <circle cx="400" cy="400" r="366.78" style="fill:rgb(77,207,24);"/>
                    <clipPath id="_clip2">
                        <circle cx="400" cy="400" r="366.78"/>
                    </clipPath>
                    <g clip-path="url(#_clip2)">
                        <path d="M165.693,100.269C196.815,87.498 231.597,123.988 256.163,144.996C280.729,166.004 297.84,199.041 313.088,226.318C327.612,252.3 339.43,280.047 347.649,308.656C356.459,339.321 357.222,383.37 365.947,410.307C373.031,432.178 386.277,460.456 400,470.282C413.089,479.654 432.837,473.797 448.285,469.266C467.344,463.675 494.445,451.093 514.358,436.737C536.213,420.981 565.862,392.01 579.416,374.729C588.619,362.995 594.76,342.563 602.342,329.721C610.643,315.659 617.535,302.895 629.225,290.358C640.355,278.422 651.76,266.118 665.82,257.83C681.914,248.342 712.749,238.177 725.794,233.433C731.666,231.298 742.17,223.422 744.091,229.367C754.934,262.912 787.07,397.77 790.851,434.704C791.838,444.337 775.981,447.949 766.78,450.968C755.937,454.526 739.331,453.547 725.794,456.051C709.306,459.1 686.646,463.001 667.853,469.266C646.506,476.381 619.737,487.393 597.713,498.745C576.067,509.901 560.136,539.141 538.62,547.781C517.468,556.275 490.874,545.681 468.615,550.587C437.103,557.533 382.11,549.338 352.462,553.235C333.908,555.673 283.723,577.091 266.159,570.636C246.337,563.351 237.38,544.327 222.287,524.93C210.456,509.725 207.52,502.352 195.172,487.563C180.601,470.113 156.036,443.175 140.28,430.638C128.891,421.576 114.628,416.345 100.635,412.341C82.792,407.234 46.943,409.318 33.22,400C20.52,391.377 18.297,371.783 18.297,356.432C18.297,329.179 13.125,271.406 33.22,236.483C57.786,193.789 128.535,115.517 165.693,100.269Z" style="fill:rgb(18,113,177);"/>
                        <g id="Pin" transform="matrix(1,0,0,1,39.3901,-33.0368)">
                            <g transform="matrix(-0.734975,-0.678095,0.678095,-0.734975,560.502,862.3)">
                                <path d="M369.466,376.93C369.466,376.93 307.459,458.048 307.459,492.813C307.459,527.036 335.243,554.821 369.466,554.821C403.689,554.821 431.474,527.036 431.474,492.813C431.474,458.048 369.466,376.93 369.466,376.93Z" style="fill-opacity:0.36;"/>
                            </g>
                            <g transform="matrix(-1,1.22465e-16,-1.22465e-16,-1,914.066,711.663)">
                                <path d="M369.466,376.93C369.466,376.93 307.459,458.048 307.459,492.813C307.459,527.036 335.243,554.821 369.466,554.821C403.689,554.821 431.474,527.036 431.474,492.813C431.474,458.048 369.466,376.93 369.466,376.93Z" style="fill:rgb(229,52,52);"/>
                                <clipPath id="_clip3">
                                    <path d="M369.466,376.93C369.466,376.93 307.459,458.048 307.459,492.813C307.459,527.036 335.243,554.821 369.466,554.821C403.689,554.821 431.474,527.036 431.474,492.813C431.474,458.048 369.466,376.93 369.466,376.93Z"/>
                                </clipPath>
                                <g clip-path="url(#_clip3)">
                                    <g transform="matrix(-1,-1.22465e-16,1.22465e-16,-1,831.474,753.86)">
                                        <path d="M400,287.985C423.242,322.61 504.104,319.279 524.015,287.985C535.47,269.981 482.677,400 462.008,400C441.338,400 388.107,270.267 400,287.985Z" style="fill:rgb(161,29,29);"/>
                                    </g>
                                    <g transform="matrix(-1,-1.22465e-16,1.22465e-16,-1,831.474,753.86)">
                                        <circle cx="462.008" cy="255.964" r="32.02" style="fill:white;"/>
                                    </g>
                                </g>
                            </g>
                        </g>
                        <g id="Pin1" serif:id="Pin" transform="matrix(0.605818,0,0,0.605818,-199.86,304.982)">
                            <g transform="matrix(-0.734975,-0.678095,0.678095,-0.734975,560.502,862.3)">
                                <path d="M369.466,376.93C369.466,376.93 307.459,458.048 307.459,492.813C307.459,527.036 335.243,554.821 369.466,554.821C403.689,554.821 431.474,527.036 431.474,492.813C431.474,458.048 369.466,376.93 369.466,376.93Z" style="fill-opacity:0.36;"/>
                            </g>
                            <g transform="matrix(-1,1.22465e-16,-1.22465e-16,-1,914.066,711.663)">
                                <path d="M369.466,376.93C369.466,376.93 307.459,458.048 307.459,492.813C307.459,527.036 335.243,554.821 369.466,554.821C403.689,554.821 431.474,527.036 431.474,492.813C431.474,458.048 369.466,376.93 369.466,376.93Z" style="fill:rgb(229,52,52);"/>
                                <clipPath id="_clip4">
                                    <path d="M369.466,376.93C369.466,376.93 307.459,458.048 307.459,492.813C307.459,527.036 335.243,554.821 369.466,554.821C403.689,554.821 431.474,527.036 431.474,492.813C431.474,458.048 369.466,376.93 369.466,376.93Z"/>
                                </clipPath>
                                <g clip-path="url(#_clip4)">
                                    <g transform="matrix(-1,-1.22465e-16,1.22465e-16,-1,831.474,753.86)">
                                        <path d="M400,287.985C423.242,322.61 504.104,319.279 524.015,287.985C535.47,269.981 482.677,400 462.008,400C441.338,400 388.107,270.267 400,287.985Z" style="fill:rgb(161,29,29);"/>
                                    </g>
                                    <g transform="matrix(-1,-1.22465e-16,1.22465e-16,-1,831.474,753.86)">
                                        <circle cx="462.008" cy="255.964" r="32.02" style="fill:white;"/>
                                    </g>
                                </g>
                            </g>
                        </g>
                        <g id="Pin2" serif:id="Pin" transform="matrix(0.923827,0,0,0.923827,-17.8363,330.016)">
                            <g transform="matrix(-0.734975,-0.678095,0.678095,-0.734975,560.502,862.3)">
                                <path d="M369.466,376.93C369.466,376.93 307.459,458.048 307.459,492.813C307.459,527.036 335.243,554.821 369.466,554.821C403.689,554.821 431.474,527.036 431.474,492.813C431.474,458.048 369.466,376.93 369.466,376.93Z" style="fill-opacity:0.36;"/>
                            </g>
                            <g transform="matrix(-1,1.22465e-16,-1.22465e-16,-1,914.066,711.663)">
                                <path d="M369.466,376.93C369.466,376.93 307.459,458.048 307.459,492.813C307.459,527.036 335.243,554.821 369.466,554.821C403.689,554.821 431.474,527.036 431.474,492.813C431.474,458.048 369.466,376.93 369.466,376.93Z" style="fill:rgb(229,52,52);"/>
                                <clipPath id="_clip5">
                                    <path d="M369.466,376.93C369.466,376.93 307.459,458.048 307.459,492.813C307.459,527.036 335.243,554.821 369.466,554.821C403.689,554.821 431.474,527.036 431.474,492.813C431.474,458.048 369.466,376.93 369.466,376.93Z"/>
                                </clipPath>
                                <g clip-path="url(#_clip5)">
                                    <g transform="matrix(-1,-1.22465e-16,1.22465e-16,-1,831.474,753.86)">
                                        <path d="M400,287.985C423.242,322.61 504.104,319.279 524.015,287.985C535.47,269.981 482.677,400 462.008,400C441.338,400 388.107,270.267 400,287.985Z" style="fill:rgb(161,29,29);"/>
                                    </g>
                                    <g transform="matrix(-1,-1.22465e-16,1.22465e-16,-1,831.474,753.86)">
                                        <circle cx="462.008" cy="255.964" r="32.02" style="fill:white;"/>
                                    </g>
                                </g>
                            </g>
                        </g>
                    </g>
                </g>
            </g>
        </g>
    </g>
</svg>
